<svg id="레이어_1" data-name="레이어 1" xmlns="http://www.w3.org/2000/svg" viewBox="0 0 76.88 83.01"><defs><style>.cls-1{fill:#303030;}.cls-2{fill:none;}</style></defs><path class="cls-1" d="M52.26,14.65a5.62,5.62,0,0,1,.4,2.23H75a5.41,5.41,0,0,1-.18-1.16,3.85,3.85,0,0,1,.1-1.07Z" transform="translate(-9.67 -8.14)"/><path class="cls-1" d="M43,16.88a5.61,5.61,0,0,1,.39-2.23H21.8a4.94,4.94,0,0,1,.1.95,4.61,4.61,0,0,1-.19,1.28Z" transform="translate(-9.67 -8.14)"/><polygon class="cls-2" points="1.11 7.62 6.75 4.37 12.38 1.11 12.38 7.62 12.38 14.12 6.75 10.87 1.11 7.62"/><path class="cls-1" d="M22.05,23.38a1.12,1.12,0,0,1-.56-.15l-11.26-6.5a1.11,1.11,0,0,1-.56-1,1.09,1.09,0,0,1,.56-1L21.49,8.29a1.11,1.11,0,0,1,1.67,1v13a1.12,1.12,0,0,1-.55,1A1.15,1.15,0,0,1,22.05,23.38Zm-9-7.62,7.91,4.57V11.19Z" transform="translate(-9.67 -8.14)"/><polygon class="cls-2" points="75.77 7.62 70.14 10.87 64.51 14.12 64.51 7.62 64.51 1.11 70.14 4.37 75.77 7.62"/><path class="cls-1" d="M74.18,23.38a1.12,1.12,0,0,1-.56-.15,1.13,1.13,0,0,1-.56-1v-13a1.13,1.13,0,0,1,.56-1,1.12,1.12,0,0,1,1.12,0L86,14.8a1.11,1.11,0,0,1,.56,1,1.13,1.13,0,0,1-.56,1l-11.26,6.5A1.15,1.15,0,0,1,74.18,23.38Zm1.11-12.19v9.14l7.92-4.57Z" transform="translate(-9.67 -8.14)"/><path class="cls-2" d="M70.55,43.18V37.87a4.7,4.7,0,0,1,1.07-3.17,4.08,4.08,0,0,1,3.2-1.3,4.31,4.31,0,0,1,4.56,4.47V59.56a22.92,22.92,0,0,1-.86,6.08A54,54,0,0,0,76.2,78.5a31.3,31.3,0,0,0,.18,5v0a3.71,3.71,0,0,1-2,3.65C72.07,88.49,67.8,90,60.73,90c-7.5,0-11.56-1.89-13.54-3.31a3.69,3.69,0,0,1-1.64-3v0a18.46,18.46,0,0,0-.67-4.26c-1.15-3.84-.78-3.91-4.15-8.54-2.57-3.53-3.6-9.26-5.57-12.5l-10-10.78c-1.5-1.8-2-4.31.81-6.61,2.58-2.13,5.06-.54,6.24.45l11.4,10.89V16.26a4.5,4.5,0,0,1,9-.16V43.18h0V32a4.49,4.49,0,0,1,4.49-4.49h0A4.49,4.49,0,0,1,61.55,32v2.81a4.5,4.5,0,1,1,9,0v8.36Z" transform="translate(-9.67 -8.14)"/><path class="cls-1" d="M60.73,91.16c-7.67,0-11.95-1.92-14.19-3.52a4.8,4.8,0,0,1-2.11-3.92,17.9,17.9,0,0,0-.61-4c-.19-.62-.33-1.13-.46-1.59-.65-2.33-.81-2.88-3.53-6.61-1.53-2.11-2.5-5.38-3.43-8.55-.7-2.37-1.36-2.61-2.15-3.95l-10-10.72c-1.76-2.13-2.43-5.39.95-8.19,2.29-1.88,5.08-1.72,7.66.46l9.57,9.13V16.26a5.6,5.6,0,0,1,5.62-5.61,5.58,5.58,0,0,1,5.6,5.41V27.54a5.6,5.6,0,0,1,8.79,3,5.63,5.63,0,0,1,3.6-1.3,5.57,5.57,0,0,1,4,1.64,5.66,5.66,0,0,1,1.45,2.47,5.75,5.75,0,0,1,9,4.55V59.56a23.82,23.82,0,0,1-.9,6.37,52.35,52.35,0,0,0-2.28,12.63,29.29,29.29,0,0,0,.17,4.84,4.84,4.84,0,0,1-2.58,4.8C72.47,89.55,68,91.16,60.73,91.16ZM28.65,41.06a3.07,3.07,0,0,0-2,.81c-2.38,2-1.68,3.83-.67,5l9.34,10,1.2,1.52a10.79,10.79,0,0,1,2,3.93c.88,3,1.79,6.07,3.09,7.86,2.85,3.91,3.13,4.69,3.87,7.32.13.45.27,1,.45,1.56a20.07,20.07,0,0,1,.71,4.49v.09a2.6,2.6,0,0,0,1.17,2.12c1.63,1.16,5.45,3.11,12.9,3.11,6.82,0,10.89-1.46,13.11-2.68a2.59,2.59,0,0,0,1.44-2.55,32.27,32.27,0,0,1-.19-5.25,54.49,54.49,0,0,1,2.36-13.11,21.91,21.91,0,0,0,.82-5.78V37.87a3.18,3.18,0,0,0-3.45-3.35,3,3,0,0,0-2.37.92,3.62,3.62,0,0,0-.78,2.43v5.31a1.12,1.12,0,0,1-2.23,0V34.82a3.4,3.4,0,0,0-1-2.4C67.05,31,64.65,31,62.93,33a1.2,1.2,0,0,0-.26.75v9.4a1.11,1.11,0,0,1-1.11,1.11h0a1.12,1.12,0,0,1-1.12-1.11V32a3.39,3.39,0,1,0-6.77,0V43.18a1.09,1.09,0,0,1-.33.78,1.12,1.12,0,0,1-1.91-.78V16.1a3.35,3.35,0,0,0-3.37-3.22,3.51,3.51,0,0,0-3.31,2.44,1.5,1.5,0,0,0-.08.47V52.35a1.09,1.09,0,0,1-.67,1,1.12,1.12,0,0,1-1.21-.21L31.4,42.27A4.3,4.3,0,0,0,28.65,41.06Z" transform="translate(-9.67 -8.14)"/></svg>