<svg id="레이어_1" data-name="레이어 1" xmlns="http://www.w3.org/2000/svg" viewBox="0 0 67.9 96.83">
<defs>
<style>.cls-1{fill:none;}.cls-2{fill:#999;}</style>
</defs>
<path class="cls-1" d="M54,44,66.43,19.19a4.54,4.54,0,0,0-2-6A4.42,4.42,0,0,0,61,13a4.7,4.7,0,0,0-2.64,2.33L39.24,52.82l-15.45-20c-1.08-1.11-3.41-3-6.17-1-3,2.1-2.74,4.7-1.42,6.68l8.9,12.95C26.77,54.93,27,63,29.28,66.88c1.79,5.78-.64,11.21-1.59,13.89v0a3.83,3.83,0,0,0,.09,3.5c1.12,2.19,3.88,5.74,10.57,9.11,6.33,3.17,10.85,3.66,13.5,3.53a3.82,3.82,0,0,0,3.48-2.44v0a32.05,32.05,0,0,1,2.15-4.69,56.53,56.53,0,0,1,8-10.76A24.26,24.26,0,0,0,69,73.82L80.4,51.18a4.36,4.36,0,0,0-2-6.14,4.06,4.06,0,0,0-3.47-.25,5.16,5.16,0,0,0-2.44,2.5l-2.4,4.8,3.84-7.66a4.69,4.69,0,0,0,.29-3.51A4.43,4.43,0,0,0,72,38.29a4.56,4.56,0,0,0-6.09,2.1L62,48.05l2.19-4.39,2.93-5.84a4.56,4.56,0,0,0-2-6.15h0a4.56,4.56,0,0,0-6.09,2.11Z" transform="translate(-14.16 -1.23)"/><path class="cls-2" d="M51.06,98.07c-2.86,0-7.29-.71-13.22-3.68C31,91,28,87.28,26.77,84.8a4.91,4.91,0,0,1-.11-4.46l.3-.81c1-2.77,2.73-7.39,1.29-12.21-1.29-2.28-1.92-5.69-2.54-9A31.23,31.23,0,0,0,24.13,52L15.28,39.12c-1.55-2.32-1.9-5.68,1.7-8.22,2.46-1.72,5.23-1.3,7.61,1.16l.08.09L39.05,50.74,57.34,14.8a5.73,5.73,0,0,1,3.26-2.87,5.54,5.54,0,0,1,4.32.27,5.64,5.64,0,0,1,2.53,7.46L62.16,30.2a5.48,5.48,0,0,1,3.54.48,5.62,5.62,0,0,1,3,6.19,5.53,5.53,0,0,1,6.61,3.71,5.72,5.72,0,0,1,.15,2.9,5.36,5.36,0,0,1,3.47.56,5.5,5.5,0,0,1,2.52,7.64L70,74.32a25.1,25.1,0,0,1-3.73,5.42A55.43,55.43,0,0,0,58.46,90.3a30.71,30.71,0,0,0-2.08,4.53,5,5,0,0,1-4.49,3.22Zm-31-66a3,3,0,0,0-1.8.65c-2.58,1.8-2,3.79-1.14,5.14L26,50.81a.38.38,0,0,1,.09.15,31.13,31.13,0,0,1,1.79,7c.6,3.16,1.21,6.44,2.34,8.39a.94.94,0,0,1,.1.23c1.73,5.58-.16,10.7-1.29,13.75-.11.31-.22.59-.31.84a.5.5,0,0,1,0,.13,2.72,2.72,0,0,0,.07,2.51c.91,1.79,3.44,5.28,10.08,8.62,6.09,3.06,10.4,3.55,12.94,3.42a2.68,2.68,0,0,0,2.49-1.72,33.2,33.2,0,0,1,2.24-4.89,57.88,57.88,0,0,1,8.13-10.95A22.71,22.71,0,0,0,68,73.32L79.4,50.68A3.24,3.24,0,0,0,77.88,46a2.94,2.94,0,0,0-2.53-.21,4.06,4.06,0,0,0-1.88,2l-2.41,4.8a1.11,1.11,0,0,1-2-1l3.84-7.67a3.54,3.54,0,0,0,.22-2.67,3.33,3.33,0,0,0-1.67-2,3.44,3.44,0,0,0-4.59,1.61L63,48.55a1.11,1.11,0,1,1-2-1l5.13-10.23a3.38,3.38,0,1,0-6-3.19L55,44.52a1.11,1.11,0,0,1-2-1l5.13-10.24.1-.2,7.22-14.39a3.42,3.42,0,0,0-1.52-4.49A3.33,3.33,0,0,0,61.33,14a3.57,3.57,0,0,0-2,1.78L40.24,53.32a1.14,1.14,0,0,1-.89.61,1.11,1.11,0,0,1-1-.43L22.94,33.57A4.06,4.06,0,0,0,20.07,32.08Z" transform="translate(-14.16 -1.23)"/><polygon class="cls-1" points="37.72 10.68 31.37 12.1 25.03 13.53 26.97 7.32 28.91 1.11 33.31 5.9 37.72 10.68"/><path class="cls-2" d="M39.19,15.88a1.13,1.13,0,0,1-.82-.36,1.12,1.12,0,0,1-.24-1.09L42,2a1.13,1.13,0,0,1,.82-.76,1.11,1.11,0,0,1,1.06.33l8.81,9.57a1.11,1.11,0,0,1,.24,1.09,1.1,1.1,0,0,1-.82.75L39.44,15.85A1.07,1.07,0,0,1,39.19,15.88ZM43.56,4.52l-2.73,8.73,8.92-2Z" transform="translate(-14.16 -1.23)"/><path class="cls-2" d="M22.2,19.74a1.26,1.26,0,0,1-.33,0,1.12,1.12,0,0,1-.73-1.4l.05-.14a15.95,15.95,0,0,1,20-10.5,1.11,1.11,0,0,1-.66,2.13,13.73,13.73,0,0,0-17.18,9l0,.15A1.11,1.11,0,0,1,22.2,19.74Z" transform="translate(-14.16 -1.23)"/></svg>